# xmcd
#
# Track frame offsets:
#  150
#  19725
#  36675
#  52950
#  69375
#
# Disc length: 1123 seconds
#
# Revision: 1
# Processed by: cddbd v1.5.1PL0 Copyright (c) Steve Scherf et al.
# Submitted via: Collectorz.com_Music_Collector 6.9
#
DISCID=3f046105
DTITLE=The Bobby Kyle Band - Last Call For The Blues
DYEAR=2004
DGENRE=Blues
TTITLE0=Spider and The Fly
TTITLE1=Start All Over Again
TTITLE2=Let's Straighten It Out
TTITLE3=Last Call For The Blues
TTITLE4=Part Time Love
EXTD=
EXTT0=
EXTT1=
EXTT2=
EXTT3=
EXTT4=
PLAYORDER=
